<?xml version="1.0" encoding="UTF-8"?>
<svg id="Layer_2" data-name="Layer 2" xmlns="http://www.w3.org/2000/svg" viewBox="0 0 2096.25 1368.52">
  <defs>
    <style>
      .cls-1 {
        fill: #231f20;
      }
    </style>
  </defs>
  <g id="Layer_1-2" data-name="Layer 1">
    <g>
      <path class="cls-1" d="M100.96,0v550.69h132.16v91.78H0V0h100.96Z"/>
      <path class="cls-1" d="M384.56,0v642.47h-100.96V0h100.96Z"/>
      <path class="cls-1" d="M878.33,642.47h-96.37V178.06l-67,464.41h-93.62l-71.59-464.41v464.41h-91.78V0h151.44l58.74,455.24L726.89,0h151.44v642.47Z"/>
      <path class="cls-1" d="M1052.72,0v642.47h-100.96V0h100.96Z"/>
      <path class="cls-1" d="M1349.16,0h91.78v642.47h-124.82l-98.21-463.5v463.5h-91.78V0h139.51l83.52,436.88V0Z"/>
      <path class="cls-1" d="M1817.24,642.47h-110.14l-16.52-153.27-102.8,153.27h-100.96L1574.02,0h156.03l87.19,642.47ZM1680.48,397.41l-33.04-312.06-33.04,312.06h66.08Z"/>
      <path class="cls-1" d="M1964.08,0v550.69h132.16v91.78h-233.12V0h100.96Z"/>
    </g>
    <path class="cls-1" d="M304.45,1194.14v12.85c0,84.44-33.96,161.54-145.93,161.54S10.75,1291.43,10.75,1206.99v-31.21h96.37v31.21c0,48.64,17.44,69.75,50.48,69.75s50.48-21.11,50.48-69.75v-12.85c0-101.88-206.51-152.36-206.51-312.06v-12.85c0-84.44,40.38-161.53,152.36-161.53s145.93,77.1,145.93,161.53v31.21h-96.37v-31.21c0-48.64-17.44-69.75-50.48-69.75s-50.48,21.11-50.48,69.75v12.85c0,100.04,201.92,144.1,201.92,312.06Z"/>
    <path class="cls-1" d="M485.26,716.87h40.38c113.81,0,152.36,77.1,152.36,161.54v117.48c0,84.44-38.55,161.54-152.36,161.54h-40.38v201.92h-100.96v-642.47h100.96ZM524.73,808.66h-39.47v256.99h39.47c34.88,0,52.32-21.11,52.32-69.75v-117.48c0-48.64-17.44-69.75-52.32-69.75Z"/>
    <path class="cls-1" d="M1037.78,1359.34h-110.14l-16.52-153.27-102.8,153.27h-100.96l87.19-642.47h156.03l87.19,642.47ZM901.03,1114.29l-33.04-312.06-33.04,312.06h66.08Z"/>
    <path class="cls-1" d="M1242.46,707.7c111.97,0,145.93,77.1,145.93,161.53v31.21h-96.37v-31.21c0-48.64-17.44-69.75-50.48-69.75s-50.48,21.11-50.48,69.75v337.76c0,48.64,17.44,69.75,50.48,69.75s50.48-21.11,50.48-69.75v-31.21h96.37v31.21c0,84.44-33.96,161.54-145.93,161.54s-152.36-77.1-152.36-161.54v-337.76c0-84.44,40.38-161.53,152.36-161.53Z"/>
    <path class="cls-1" d="M1728.89,716.87v91.78h-150.52v174.38h127.58v91.78h-127.58v192.74h150.52v91.78h-251.48v-642.47h251.48Z"/>
    <path d="M1908.83,927.56l-41.99,30.51,27.49-84.59v-4.24c0-1.51.02-2.99.05-4.45l-75.72-55.02h94.43c.84-.73,1.72-1.42,2.62-2.07l29.11-89.58,29.11,89.58c.9.65,1.77,1.34,2.62,2.07h94.43l-75.72,55.01c.03,1.46.05,2.94.05,4.45v4.25l8.76,26.96h87.61v-31.21c0-84.44-33.96-161.53-145.93-161.53s-152.36,77.1-152.36,161.53v12.85c0,159.7,206.51,210.18,206.51,312.06v12.85c0,48.64-17.44,69.75-50.48,69.75s-50.48-21.11-50.48-69.75v-31.21h-96.37v31.21c0,84.44,40.38,161.54,147.77,161.54s145.93-77.1,145.93-161.54v-12.85c0-140.42-141.14-194.24-187.42-266.58Z"/>
  </g>
</svg>