<?xml version="1.0" encoding="UTF-8"?>
<svg id="Layer_2" data-name="Layer 2" xmlns="http://www.w3.org/2000/svg" viewBox="0 0 925.7 784.02">
  <defs>
    <style>
      .cls-1, .cls-2 {
        fill: none;
      }

      .cls-3 {
        fill: #231f20;
      }

      .cls-2 {
        stroke: #231f20;
        stroke-miterlimit: 10;
        stroke-width: 20px;
      }
    </style>
  </defs>
  <g id="Layer_1-2" data-name="Layer 1">
    <g>
      <path class="cls-3" d="M100.96,18.36v550.69h132.16v91.78H0V18.36h100.96Z"/>
      <path class="cls-3" d="M593.18,660.83h-110.14l-16.52-153.27-102.8,153.27h-100.96L349.96,18.36h156.03l87.19,642.47ZM456.42,415.77l-33.04-312.06-33.04,312.06h66.08Z"/>
      <line class="cls-2" y1="774.02" x2="925.7" y2="774.02"/>
      <path class="cls-1" d="M808.35,102.07c-.84-.73-1.72-1.42-2.62-2.07l.67,2.07h1.94Z"/>
      <path class="cls-1" d="M747.52,100c-.9.65-1.77,1.34-2.62,2.07h1.94l.67-2.07Z"/>
      <path class="cls-1" d="M827.11,165.78v-4.25c0-1.51-.02-2.99-.05-4.45l-2.24,1.63,2.3,7.06Z"/>
      <path class="cls-1" d="M726.2,157.09c-.03,1.46-.05,2.94-.05,4.45v4.24l2.29-7.06-2.24-1.63Z"/>
      <path d="M738.28,219.86l-41.99,30.51,27.49-84.59v-4.24c0-1.51.02-2.99.05-4.45l-75.72-55.02h94.43c.84-.73,1.72-1.42,2.62-2.07l29.11-89.58,29.11,89.58c.9.65,1.77,1.34,2.62,2.07h94.43l-75.72,55.01c.03,1.46.05,2.94.05,4.45v4.25l8.76,26.96h87.61v-31.21c0-84.44-33.96-161.53-145.93-161.53s-152.36,77.1-152.36,161.53v12.85c0,159.7,206.51,210.18,206.51,312.06v12.85c0,48.64-17.44,69.75-50.48,69.75s-50.48-21.11-50.48-69.75v-31.21h-96.37v31.21c0,84.44,40.38,161.54,147.77,161.54s145.93-77.1,145.93-161.54v-12.85c0-140.42-141.14-194.24-187.42-266.58Z"/>
    </g>
  </g>
</svg>